<?xml version="1.0" encoding="UTF-8" standalone="no"?>
<!-- Created with Inkscape (http://www.inkscape.org/) -->

<svg
   xmlns:dc="http://purl.org/dc/elements/1.1/"
   xmlns:cc="http://creativecommons.org/ns#"
   xmlns:rdf="http://www.w3.org/1999/02/22-rdf-syntax-ns#"
   xmlns:svg="http://www.w3.org/2000/svg"
   xmlns="http://www.w3.org/2000/svg"
   xmlns:sodipodi="http://sodipodi.sourceforge.net/DTD/sodipodi-0.dtd"
   xmlns:inkscape="http://www.inkscape.org/namespaces/inkscape"
   width="29.378235mm"
   height="9.1171789mm"
   viewBox="0 0 29.378235 9.1171789"
   version="1.1"
   id="svg8"
   inkscape:version="0.92.4 (5da689c313, 2019-01-14)"
   sodipodi:docname="logo.svg">
  <defs
     id="defs2" />
  <sodipodi:namedview
     id="base"
     pagecolor="#ffffff"
     bordercolor="#666666"
     borderopacity="1.0"
     inkscape:pageopacity="0.0"
     inkscape:pageshadow="2"
     inkscape:zoom="11.2"
     inkscape:cx="78.445732"
     inkscape:cy="23.058996"
     inkscape:document-units="mm"
     inkscape:current-layer="layer1"
     showgrid="false"
     inkscape:window-width="3200"
     inkscape:window-height="1734"
     inkscape:window-x="4791"
     inkscape:window-y="-9"
     inkscape:window-maximized="1" />
  <metadata
     id="metadata5">
    <rdf:RDF>
      <cc:Work
         rdf:about="">
        <dc:format>image/svg+xml</dc:format>
        <dc:type
           rdf:resource="http://purl.org/dc/dcmitype/StillImage" />
        <dc:title></dc:title>
      </cc:Work>
    </rdf:RDF>
  </metadata>
  <g
     inkscape:label="Layer 1"
     inkscape:groupmode="layer"
     id="layer1"
     transform="translate(229.92834,-318.05551)">
    <g
       aria-label="MemTorch"
       style="font-style:normal;font-variant:normal;font-weight:normal;font-stretch:normal;font-size:7.05555534px;line-height:1.25;font-family:sans-serif;-inkscape-font-specification:'sans-serif, Normal';font-variant-ligatures:normal;font-variant-caps:normal;font-variant-numeric:normal;font-feature-settings:normal;text-align:start;letter-spacing:0px;word-spacing:0px;writing-mode:lr-tb;text-anchor:start;fill:#ef4c2c;fill-opacity:1;stroke:none;stroke-width:0.26458332"
       id="text817">
      <path
         d="m -226.30179,322.79684 v -3.21027 l -0.87489,3.21027 h -0.97366 l -0.86784,-3.19616 v 3.19616 h -0.91016 v -4.68488 h 1.43933 l 0.84667,3.43605 0.84666,-3.43605 h 1.41111 v 4.68488 z"
         style="fill:#000000;fill-opacity:1"
         id="path890" />
      <path
         d="m -222.71536,320.72251 q -0.007,-0.1905 -0.0706,-0.33161 -0.0564,-0.14817 -0.15522,-0.23989 -0.0988,-0.0988 -0.22578,-0.14111 -0.127,-0.0494 -0.26105,-0.0494 -0.27517,0 -0.47978,0.20461 -0.19756,0.19756 -0.22578,0.55739 z m -1.44639,0.57856 q 0.0212,0.39511 0.22578,0.62794 0.21166,0.23283 0.55033,0.23283 0.22578,0 0.39511,-0.0988 0.17639,-0.10584 0.22578,-0.28928 h 0.94544 q -0.16227,0.53622 -0.56444,0.8255 -0.40217,0.28928 -0.95956,0.28928 -1.73566,0 -1.73566,-1.89089 0,-0.40217 0.11289,-0.72672 0.11288,-0.32456 0.32455,-0.55739 0.21872,-0.23284 0.52917,-0.35278 0.31044,-0.127 0.71261,-0.127 0.80433,0 1.21355,0.51505 0.41628,0.51506 0.41628,1.55223 z"
         style="fill:#000000;fill-opacity:1"
         id="path892" />
      <path
         d="m -217.37497,322.79684 v -2.10255 q 0,-0.3175 -0.14816,-0.51506 -0.14817,-0.19755 -0.39512,-0.19755 -0.254,0 -0.42333,0.21166 -0.16228,0.21167 -0.16228,0.52917 v 2.07433 h -0.91722 v -2.08844 q 0,-0.21167 -0.0282,-0.34572 -0.0282,-0.13406 -0.0988,-0.21167 -0.0635,-0.0776 -0.16933,-0.10583 -0.10584,-0.0353 -0.254,-0.0353 -0.55739,0 -0.55739,0.67733 v 2.10961 h -0.91722 v -3.47133 h 0.86077 v 0.508 q 0.17639,-0.34572 0.42334,-0.47272 0.24694,-0.127 0.59266,-0.127 0.17639,0 0.31045,0.0282 0.14111,0.0282 0.24694,0.0988 0.11289,0.0635 0.21167,0.16933 0.0988,0.10584 0.19756,0.254 0.14111,-0.28928 0.37394,-0.41628 0.23283,-0.13405 0.56444,-0.13405 0.26106,0 0.47978,0.0917 0.21872,0.0847 0.37395,0.24695 0.15522,0.15522 0.23989,0.36688 0.0917,0.21167 0.0917,0.45156 v 2.40594 z"
         style="fill:#000000;fill-opacity:1"
         id="path894" />
      <path
         d="m -214.87091,322.79684 v -3.86644 h -1.41111 v -0.81844 h 3.81 v 0.81844 h -1.41817 v 3.86644 z"
         style="font-style:normal;font-variant:normal;font-weight:normal;font-stretch:normal;font-family:Coolvetica;-inkscape-font-specification:Coolvetica;fill:#ef4c2c;fill-opacity:1;stroke-width:0.26458332"
         id="path896" />
      <path
         d="m -211.23608,322.11951 q 0.83961,0 0.83961,-1.05833 0,-1.05128 -0.83961,-1.05128 -0.83961,0 -0.83961,1.05128 0,1.05833 0.83961,1.05833 z m 0,0.76906 q -0.42334,0 -0.75495,-0.13406 -0.33161,-0.13405 -0.56444,-0.37394 -0.22578,-0.23989 -0.34572,-0.57856 -0.11995,-0.33867 -0.11995,-0.74083 0,-0.40922 0.11995,-0.74789 0.127,-0.33867 0.35983,-0.57856 0.23283,-0.23989 0.55739,-0.36689 0.33161,-0.13405 0.74789,-0.13405 0.40922,0 0.73377,0.13405 0.32456,0.127 0.55034,0.36689 0.23283,0.23284 0.35278,0.5715 0.127,0.33867 0.127,0.75495 0,0.41628 -0.127,0.75494 -0.11995,0.33161 -0.35278,0.5715 -0.22578,0.23989 -0.55739,0.37395 -0.32456,0.127 -0.72672,0.127 z"
         style="font-style:normal;font-variant:normal;font-weight:normal;font-stretch:normal;font-family:Coolvetica;-inkscape-font-specification:Coolvetica;fill:#ef4c2c;fill-opacity:1;stroke-width:0.26458332"
         id="path898" />
      <path
         d="m -209.14014,322.79684 v -3.47133 h 0.86077 v 0.41628 q 0.11289,-0.17639 0.23284,-0.27517 0.127,-0.0988 0.254,-0.14816 0.13405,-0.0565 0.26811,-0.0706 0.13405,-0.0141 0.27517,-0.0141 h 0.11994 v 0.93839 q -0.127,-0.0212 -0.254,-0.0212 -0.83961,0 -0.83961,0.83961 v 1.80622 z"
         style="font-style:normal;font-variant:normal;font-weight:normal;font-stretch:normal;font-family:Coolvetica;-inkscape-font-specification:Coolvetica;fill:#ef4c2c;fill-opacity:1;stroke-width:0.26458332"
         id="path900" />
      <path
         d="m -203.96126,321.54096 q -0.0353,0.30338 -0.17638,0.55033 -0.13406,0.24694 -0.34573,0.42333 -0.21166,0.17639 -0.48683,0.27517 -0.26811,0.0988 -0.58561,0.0988 -0.35278,0 -0.64911,-0.11289 -0.28928,-0.11995 -0.50095,-0.35278 -0.21166,-0.23989 -0.33161,-0.58561 -0.11289,-0.35278 -0.11289,-0.81845 0,-0.46566 0.11289,-0.80433 0.11995,-0.33867 0.33161,-0.55033 0.21167,-0.21872 0.508,-0.32456 0.30339,-0.10583 0.67028,-0.10583 0.33867,0 0.61383,0.0917 0.28223,0.0917 0.48684,0.26811 0.21166,0.17639 0.33161,0.42334 0.11994,0.24694 0.14111,0.55033 h -0.92428 q -0.0353,-0.26811 -0.21872,-0.41628 -0.17639,-0.15522 -0.43744,-0.15522 -0.14817,0 -0.27517,0.0494 -0.127,0.0494 -0.22578,0.16933 -0.0917,0.11289 -0.14817,0.31045 -0.0564,0.1905 -0.0564,0.47272 0,0.5715 0.20461,0.84666 0.20461,0.27517 0.47272,0.27517 0.26811,0 0.45861,-0.14817 0.1905,-0.14816 0.21873,-0.43038 z"
         style="font-style:normal;font-variant:normal;font-weight:normal;font-stretch:normal;font-family:Coolvetica;-inkscape-font-specification:Coolvetica;fill:#ef4c2c;fill-opacity:1;stroke-width:0.26458332"
         id="path902" />
      <path
         d="m -201.47439,322.79684 v -2.15194 q 0,-0.39511 -0.14111,-0.53622 -0.13406,-0.14817 -0.45156,-0.14817 -0.16933,0 -0.30339,0.0706 -0.13405,0.0635 -0.22578,0.18344 -0.0917,0.11289 -0.14111,0.26811 -0.0423,0.14817 -0.0423,0.32456 v 1.98966 h -0.91722 v -4.74133 h 0.91722 v 1.72156 q 0.0494,-0.11289 0.14817,-0.21167 0.10583,-0.10583 0.23989,-0.17639 0.13405,-0.0705 0.29633,-0.11289 0.16228,-0.0423 0.33867,-0.0423 0.53622,0 0.86783,0.29633 0.33867,0.28928 0.33867,0.81139 v 2.45533 z"
         style="font-style:normal;font-variant:normal;font-weight:normal;font-stretch:normal;font-family:Coolvetica;-inkscape-font-specification:Coolvetica;fill:#ef4c2c;fill-opacity:1;stroke-width:0.26458332"
         id="path904" />
    </g>
    <path
       style="fill:#000000;stroke-width:0.01548069"
       d="m -221.23024,325.36145 h 1.91959 v -0.78952 -0.7895 h 4.07142 4.07141 v 0.7895 0.78952 h 1.91962 1.9196 v 0.11609 0.11612 h -1.9196 -1.91962 v 0.78952 0.78951 h -4.07141 -4.07142 v -0.78951 -0.78952 h -1.91959 -1.91961 v -0.11612 -0.11609 z m 2.89874,0.003 0.74696,0.003 0.005,0.52245 0.005,0.5225 h 0.44099 0.441 v -0.98274 -0.98273 l 0.35614,-0.005 0.35615,-0.005 c -0.71229,0.008 1.26924,0.008 0.52592,0.008 h 0.37167 0.37165 v 0.98302 0.98303 h 0.47218 0.47214 v -0.52636 -0.52633 h 0.78952 0.78951 v -0.67342 -0.6734 h -3.44445 -3.44445 v 0.67325 0.67326 z m 2.69753,1.59082 h 3.44445 v -0.68117 -0.68116 h -0.68117 -0.68115 v 0.5186 0.51863 h -0.68888 -0.6889 v -0.97531 -0.97529 h -0.26174 -0.26176 c -0.53469,0.008 -0.50911,0.008 -0.77597,0 h -0.2486 v 0.97529 0.97531 h -0.66567 -0.66565 v -0.51863 -0.5186 h -0.63472 -0.6347 v 0.68116 0.68117 z"
       id="path841"
       inkscape:connector-curvature="0"
       sodipodi:nodetypes="cccccccccccccccccccccccccccccccccccccccccccccccccccccccccccccccccccccccccccccccc" />
    <path
       style="fill:none;stroke:#000000;stroke-width:0.26458332px;stroke-linecap:butt;stroke-linejoin:miter;stroke-opacity:1"
       d="m -219.20759,325.49071 h -10.72075"
       id="path845"
       inkscape:connector-curvature="0"
       sodipodi:nodetypes="cc" />
    <path
       style="fill:none;stroke:#000000;stroke-width:0.26458332px;stroke-linecap:butt;stroke-linejoin:miter;stroke-opacity:1"
       d="m -200.55011,325.46171 h -11.49106"
       id="path845-2"
       inkscape:connector-curvature="0"
       sodipodi:nodetypes="cc" />
  </g>
</svg>
